<?xml version="1.0" encoding="UTF-8"?>
<svg width="1241px" height="297px" viewBox="0 0 1241 297" version="1.1" xmlns="http://www.w3.org/2000/svg" xmlns:xlink="http://www.w3.org/1999/xlink">
    <!-- Generator: Sketch 44.1 (41455) - http://www.bohemiancoding.com/sketch -->
    <title>glam-logo</title>
    <desc>Created with Sketch.</desc>
    <defs></defs>
    <g id="Page-1" stroke="none" stroke-width="1" fill="none" fill-rule="evenodd">
        <g id="skin-cell-glamour-01" transform="translate(-100.000000, -81.000000)">
            <g id="glam-logo" transform="translate(100.000000, 81.000000)">
                <path d="M68.4,185.6 L100,185.6 L100,213.6 C100,242.4 92.8,253.6 72.8,253.6 C55.6,253.6 49.6,241.6 49.6,223.2 L49.6,74.8 C49.6,50.4 59.6,43.2 71.6,43.2 C91.2,43.2 100,54.4 100,97.6 L147.2,97.6 L147.2,79.2 C147.2,36 122.4,0 72.8,0 C24,0 0,33.2 0,74 L0,222.8 C0,268.8 27.2,296.8 66.4,296.8 C89.6,296.8 101.6,288.8 116.4,271.2 L125.6,292.8 L149.6,292.8 L149.6,146.4 L68.4,146.4 L68.4,185.6 Z M305.2,292.8 L305.2,249.6 L227.2,249.6 L227.2,4 L177.6,4 L177.6,292.8 L305.2,292.8 Z M399,61.6 L379.4,185.6 L419.4,185.6 L399.8,61.6 L399,61.6 Z M372.2,228.8 L363.4,292.8 L315.4,292.8 L368.6,4 L430.2,4 L483.4,292.8 L435.4,292.8 L426.6,228.8 L372.2,228.8 Z M628.8,4 L694,4 L694,292.8 L650.8,292.8 L650.8,67.2 L650,67.2 L605.2,292.8 L581.2,292.8 L536.4,67.2 L535.6,67.2 L535.6,292.8 L492.4,292.8 L492.4,4 L557.6,4 L592.8,172.8 L593.6,172.8 L628.8,4 Z M719.5,263 L871.5,263 L871.5,293 L719.5,293 L719.5,263 Z M719.6,173.8 L719.6,74 C719.6,33.2 743.6,0 795.6,0 C847.6,0 871.6,33.2 871.6,74 L871.6,173.8 C871.6,214.6 847.6,247.8 795.6,247.8 C743.6,247.8 719.6,214.6 719.6,173.8 Z M769.2,75.2 L769.2,172.6 C769.2,194.2 775.6,204.6 795.6,204.6 C815.6,204.6 822,194.2 822,172.6 L822,75.2 C822,53.6 815.6,43.2 795.6,43.2 C775.6,43.2 769.2,53.6 769.2,75.2 Z M899.6,220 C899.6,269.6 928.4,296.8 975.6,296.8 C1022.8,296.8 1051.6,269.6 1051.6,220 L1051.6,4 L1002,4 L1002,222 C1002,243.2 993.6,253.6 975.6,253.6 C957.6,253.6 949.2,243.2 949.2,222 L949.2,4 L899.6,4 L899.6,220 Z M1129.2,44.8 L1129.2,133.6 L1146.8,133.6 C1173.6,133.6 1183.6,123.6 1183.6,89.2 C1183.6,54.8 1173.6,44.8 1146.8,44.8 L1129.2,44.8 Z M1129.2,174.4 L1129.2,292.8 L1079.6,292.8 L1079.6,4 L1149.2,4 C1204.8,4 1233.2,27.6 1233.2,89.2 C1233.2,135.6 1215.2,154.4 1198.4,162 L1240.4,292.8 L1190,292.8 L1154.8,173.2 C1148.4,174 1138,174.4 1129.2,174.4 Z" id="GLAMOUR" fill="#FF61AB"></path>
                <path d="M-33.86,163.28 L-33.86,158.96 L-41.66,158.96 L-41.66,134.4 L-46.62,134.4 L-46.62,163.28 L-33.86,163.28 Z M-25.18,163.28 L-25.18,134.4 L-30.14,134.4 L-30.14,163.28 L-25.18,163.28 Z M-14.74,163.28 L-14.74,150.48 L-8.1,150.48 L-8.1,146.16 L-14.74,146.16 L-14.74,138.72 L-5.86,138.72 L-5.86,134.4 L-19.7,134.4 L-19.7,163.28 L-14.74,163.28 Z M11.9,163.28 L11.9,158.96 L3.02,158.96 L3.02,150.48 L9.42,150.48 L9.42,146.16 L3.02,146.16 L3.02,138.72 L11.34,138.72 L11.34,134.4 L-1.94,134.4 L-1.94,163.28 L11.9,163.28 Z M29.58,141 C29.14,136.92 26.74,134 22.7,134 C17.82,134 15.02,136.6 15.02,141.2 C15.02,149.48 25.1,151 25.1,156.72 C25.1,158.44 23.94,159.36 22.22,159.36 C20.62,159.36 19.46,157.92 19.26,155 L14.54,155.68 C14.74,160 17.38,163.68 21.98,163.68 C26.62,163.68 29.82,161.04 29.82,156.28 C29.82,148.44 19.74,146.08 19.74,141.16 C19.74,139.36 20.62,138.32 22.22,138.32 C23.34,138.32 24.66,139.04 24.86,141.52 L29.58,141 Z M36.46,163.28 L41.42,163.28 L41.42,138.72 L46.22,138.72 L46.22,134.4 L31.66,134.4 L31.66,138.72 L36.46,138.72 L36.46,163.28 Z M58.1,151.28 L64.1,134.4 L59.06,134.4 L55.74,145.4 L55.66,145.4 L52.18,134.4 L47.14,134.4 L53.14,151.28 L53.14,163.28 L58.1,163.28 L58.1,151.28 Z M79.42,163.28 L79.42,158.96 L71.62,158.96 L71.62,134.4 L66.66,134.4 L66.66,163.28 L79.42,163.28 Z M96.3,163.28 L96.3,158.96 L87.42,158.96 L87.42,150.48 L93.82,150.48 L93.82,146.16 L87.42,146.16 L87.42,138.72 L95.74,138.72 L95.74,134.4 L82.46,134.4 L82.46,163.28 L96.3,163.28 Z" id="LIFESTYLE" fill="#FFFFFF" transform="translate(24.840000, 148.840000) rotate(-90.000000) translate(-24.840000, -148.840000) "></path>
            </g>
        </g>
    </g>
</svg>